<svg width="837" height="572" viewBox="0 0 837 572" fill="none" xmlns="http://www.w3.org/2000/svg">
<path d="M302.157 195.735L310.389 187.235L306.918 183.549L299.995 188.119L299.161 185.612L293.001 193.747L296.093 198.066L302.157 195.735Z" fill="#EED5B9"/>
<path d="M218.777 183.549L251.882 210.161L295.506 188.253L300.414 197.6L250.426 237.922L194.203 200.942L218.777 183.549Z" fill="#DB00FF"/>
<path d="M475.274 230.304C435.401 230.531 403.273 261.089 403.515 298.556C403.757 336.024 436.277 366.213 476.151 365.986C516.024 365.759 548.152 335.201 547.909 297.732C547.667 260.265 515.148 230.076 475.274 230.304Z" fill="#EBB044"/>
<path d="M475.693 365.987C436.026 365.985 403.757 335.883 403.515 298.556C403.757 335.88 436.03 365.981 475.693 365.987ZM547.909 297.732C547.668 260.409 515.395 230.309 475.732 230.302C515.398 230.304 547.668 260.407 547.909 297.732ZM460.374 231.837L460.374 231.837C465.179 230.861 470.163 230.333 475.274 230.304C470.163 230.333 465.178 230.861 460.374 231.837Z" fill="#EAE9E9"/>
<path d="M475.703 365.987C475.701 365.987 475.695 365.987 475.693 365.987C436.03 365.981 403.757 335.88 403.515 298.556C403.514 298.41 403.514 298.264 403.514 298.118C403.514 297.46 403.524 296.804 403.544 296.152C403.738 289.799 404.863 283.665 406.796 277.863C409.609 277.019 412.365 276.042 415.045 274.944C411.892 282.215 410.178 290.178 410.232 298.518C410.45 332.373 439.723 359.676 475.703 359.676C475.838 359.676 475.975 359.675 476.11 359.674C512.274 359.468 541.412 331.753 541.193 297.771C540.974 263.916 511.701 236.613 475.721 236.613C475.586 236.613 475.449 236.614 475.315 236.615C468.783 236.652 462.479 237.587 456.538 239.294C457.946 236.879 459.227 234.392 460.374 231.837C465.178 230.861 470.163 230.333 475.274 230.304C475.422 230.303 475.574 230.302 475.722 230.302C475.724 230.302 475.729 230.302 475.732 230.302C515.395 230.309 547.668 260.409 547.909 297.732C547.91 297.879 547.911 298.025 547.911 298.171C547.911 298.646 547.906 299.12 547.895 299.593C547.083 336.207 515.362 365.762 476.151 365.986C476.002 365.986 475.851 365.987 475.703 365.987Z" fill="#D8A241"/>
<path d="M476.151 365.986C436.277 366.213 403.757 336.024 403.515 298.556C403.273 261.089 435.401 230.531 475.274 230.304C515.148 230.076 547.667 260.265 547.909 297.732C548.152 335.201 516.024 365.758 476.151 365.986ZM475.185 216.608C427.262 216.882 388.649 253.608 388.94 298.64C389.231 343.671 428.316 379.955 476.239 379.681C524.162 379.408 562.775 342.681 562.485 297.649C562.194 252.618 523.108 216.335 475.185 216.608Z" fill="#F9CC5D"/>
<path d="M452.144 318.715C450.321 315.86 449.961 311.11 455.26 310.513C459.671 310.016 464.19 313.164 468.197 314.953C471.487 316.425 475.119 317.16 479.092 317.16C483.345 317.16 486.756 316.187 489.325 314.24C491.893 312.295 493.178 309.738 493.178 306.57C493.178 303.357 492.144 301.071 490.077 299.714C488.011 298.355 484.469 297.677 479.453 297.677H476.142C467.955 297.677 461.715 296.071 457.421 292.857C453.127 289.644 450.981 284.983 450.981 278.873C450.981 272.899 453.076 268.26 457.271 264.956C461.464 261.654 467.353 260.001 474.938 260.001C478.027 260.001 481.178 260.487 484.39 261.46C491.066 263.486 501.629 268.414 499.777 274.795C496.855 284.865 485.428 271.606 481.318 269.945C478.91 268.973 476.081 268.486 472.831 268.486C469.059 268.486 466.019 269.426 463.712 271.303C461.404 273.182 460.25 275.57 460.25 278.465C460.25 281.317 461.434 283.353 463.802 284.575C466.169 285.797 471.267 286.499 479.092 286.679C487.438 286.907 493.539 288.547 497.391 291.601C501.244 294.656 503.169 299.374 503.169 305.755C503.169 311.864 501.043 316.752 496.789 320.418C492.535 324.084 486.797 325.916 479.574 325.916C477.286 325.916 474.738 325.679 471.93 325.204C466.093 324.217 457.327 324.266 453.104 319.925C452.73 319.541 452.412 319.137 452.144 318.715Z" fill="#F9CC5D"/>
<path d="M477.205 342.014H477.114C474.621 342.014 472.6 339.817 472.6 337.107V253.467C472.6 250.757 474.621 248.56 477.114 248.56H477.205C479.698 248.56 481.719 250.757 481.719 253.467V337.107C481.719 339.817 479.698 342.014 477.205 342.014Z" fill="#F9CC5D"/>
<path d="M298.581 194.109L296.184 189.544L299.161 185.613L299.267 185.931C298.883 188.613 298.651 191.344 298.581 194.109Z" fill="#DFC8AE"/>
<path d="M293.667 203.042C293.638 202.253 293.62 201.458 293.616 200.664C293.589 196.629 293.875 192.663 294.453 188.782L295.506 188.253L296.184 189.544L298.581 194.109C298.563 194.852 298.556 195.595 298.561 196.343C298.567 197.246 298.59 198.145 298.629 199.04L293.667 203.042Z" fill="#C64B4B"/>
<path d="M415.046 274.944C422.418 257.939 437.655 244.718 456.538 239.294C447.332 255.078 432.728 267.698 415.046 274.944Z" fill="#DCA542"/>
<path d="M441.787 238.243C441.785 238.245 441.788 238.242 441.787 238.243C447.558 235.352 453.799 233.173 460.374 231.837L460.374 231.837C453.799 233.173 447.558 235.352 441.787 238.243Z" fill="#DBDADA"/>
<path d="M406.796 277.863C408.872 271.627 411.882 265.776 415.671 260.456C426.059 254.987 434.994 247.365 441.787 238.243C447.558 235.352 453.799 233.173 460.374 231.837C459.227 234.392 457.946 236.879 456.538 239.294C437.655 244.718 422.418 257.939 415.046 274.944C412.365 276.042 409.609 277.019 406.796 277.863Z" fill="#CB993F"/>
<path d="M390.832 281.121C391.859 276.576 393.289 272.173 395.087 267.94C402.395 266.351 409.304 263.808 415.671 260.456C411.882 265.775 408.872 271.627 406.796 277.863C401.666 279.4 396.329 280.502 390.832 281.121ZM441.787 238.243C445.986 232.604 449.371 226.384 451.777 219.748C456.141 218.574 460.651 217.712 465.269 217.191C464.122 222.263 462.474 227.16 460.374 231.837C453.799 233.173 447.558 235.351 441.787 238.243Z" fill="#E9BF59"/>
<path d="M376.822 128.053C336.949 128.28 304.821 158.838 305.063 196.306C305.306 233.774 337.825 263.962 377.699 263.735C417.573 263.507 449.7 232.95 449.457 195.482C449.216 158.014 416.695 127.825 376.822 128.053Z" fill="#EBB044"/>
<path d="M377.25 269.847C334.97 269.844 300.389 238.471 298.629 199.04L300.415 197.599L299.893 196.606L302.157 195.735L305.142 192.652C305.082 193.862 305.055 195.08 305.063 196.306C305.305 233.632 337.584 263.733 377.251 263.736C377.402 263.736 377.548 263.736 377.698 263.735C384.973 263.693 391.987 262.643 398.595 260.725C397.306 263.067 396.135 265.474 395.087 267.94C389.51 269.154 383.702 269.811 377.738 269.845C377.574 269.846 377.415 269.847 377.25 269.847ZM443.784 222.303C447.493 214.064 449.518 204.995 449.457 195.482C449.216 158.156 416.936 128.051 377.27 128.051C377.119 128.051 376.973 128.051 376.822 128.053C341.4 128.255 312.09 152.396 306.158 184.051L299.995 188.119L299.267 185.931C304.418 149.986 337.077 122.169 376.782 121.943C376.948 121.941 377.107 121.941 377.27 121.941C420.51 121.941 455.697 154.757 455.96 195.445C456.015 203.95 454.54 212.126 451.777 219.748C449.054 220.48 446.39 221.333 443.784 222.303Z" fill="#DBDADA"/>
<path d="M299.893 196.606L298.581 194.109C298.651 191.344 298.883 188.613 299.267 185.931L299.995 188.119L306.158 184.051C305.631 186.863 305.288 189.733 305.142 192.652L302.157 195.735L299.893 196.606Z" fill="#CDB8A0"/>
<path d="M298.629 199.04C298.59 198.145 298.567 197.246 298.561 196.343C298.556 195.595 298.563 194.852 298.582 194.109L299.893 196.606L300.415 197.6L298.629 199.04Z" fill="#B64847"/>
<path d="M415.671 260.456C422.276 251.183 431.251 243.522 441.787 238.243C441.785 238.245 441.788 238.242 441.787 238.243C431.25 243.522 422.276 251.183 415.671 260.456Z" fill="#C9C8C8"/>
<path d="M415.671 260.456C422.276 251.183 431.25 243.522 441.787 238.243C434.994 247.365 426.059 254.987 415.671 260.456Z" fill="#BB8E3D"/>
<path d="M395.087 267.941C396.135 265.474 397.306 263.067 398.595 260.725C419.016 254.799 435.55 240.593 443.784 222.303C446.39 221.333 449.054 220.48 451.777 219.748C449.371 226.384 445.986 232.604 441.787 238.243C431.251 243.523 422.276 251.183 415.671 260.456C409.304 263.809 402.395 266.351 395.087 267.941Z" fill="#D6B054"/>
<path d="M377.251 263.736C337.584 263.733 305.305 233.632 305.063 196.306C305.055 195.08 305.082 193.862 305.142 192.652C305.288 189.733 305.631 186.863 306.158 184.051C312.09 152.396 341.4 128.255 376.822 128.053C376.973 128.051 377.119 128.051 377.27 128.051C416.936 128.051 449.216 158.156 449.457 195.482C449.518 204.995 447.493 214.064 443.784 222.303C435.55 240.593 419.016 254.799 398.595 260.725C391.987 262.643 384.973 263.693 377.699 263.735C377.548 263.736 377.402 263.736 377.251 263.736ZM377.269 134.363C377.135 134.363 376.998 134.363 376.863 134.364C340.699 134.57 311.56 162.286 311.78 196.267C311.999 230.123 341.272 257.424 377.252 257.424C377.387 257.424 377.524 257.424 377.658 257.424C413.822 257.217 442.96 229.502 442.74 195.52C442.522 161.665 413.248 134.363 377.269 134.363Z" fill="#D8A241"/>
<path d="M377.699 263.735C337.825 263.962 305.306 233.774 305.063 196.306C304.821 158.838 336.949 128.28 376.822 128.053C416.695 127.825 449.216 158.014 449.458 195.482C449.7 232.95 417.572 263.508 377.699 263.735ZM376.734 114.357C328.81 114.63 290.197 151.357 290.488 196.389C290.779 241.42 329.864 277.704 377.788 277.431C425.71 277.158 464.324 240.43 464.033 195.399C463.741 150.367 424.657 114.083 376.734 114.357Z" fill="#F9CC5D"/>
<path d="M664.884 317.283V333.823L641.414 405.494L647.282 479.923L632.615 482.679L609.145 391.711L610.043 364.947L620.88 310.362L664.884 317.283Z" fill="#2F435F"/>
<path d="M646.267 336.866L669.848 488.479H680.567L687.338 405.781L702.005 323.083L646.267 336.866Z" fill="#2F435F"/>
<path d="M635.043 480.293L623.845 491.429L627.08 497.073L650.183 486.653L645.928 478.403L635.043 480.293Z" fill="#2B2133"/>
<path d="M670.047 487.738L656.244 495.892L657.875 502.116L683.017 497.45L681.09 488.463L670.047 487.738Z" fill="#2B2133"/>
<path d="M575.253 215.131L567.021 206.63L570.492 202.945L577.414 207.514L578.248 205.008L584.409 213.142L581.317 217.461L575.253 215.131Z" fill="#EED5B9"/>
<path d="M650.329 193.92L625.527 229.556L581.904 207.648L576.995 216.995L626.984 257.317L674.537 210.234L650.329 193.92Z" fill="#7078FF"/>
<path d="M636.519 156.332C646.026 156.989 654.914 149.654 664.271 151.475C670.355 152.659 675.158 157.729 677.014 163.443C677.88 166.107 678.186 169.01 677.34 171.659C676.79 173.377 675.776 174.927 674.583 176.304C672.987 178.144 671.037 179.673 668.87 180.847C670.06 182.65 671.423 184.351 672.94 185.921C668.555 187.499 664.17 189.076 659.787 190.654C658.817 188.287 657.849 185.919 656.879 183.552C655.561 183.483 654.247 183.307 652.96 182.994C645.176 181.095 638.722 174.689 636.987 167.137C636.173 163.599 636.329 159.94 636.519 156.332Z" fill="#EED5B9"/>
<path d="M638.919 159.027L668.315 155.746L674.02 176.845L682.321 170.655L678.044 136.13L636.558 135.291L618.596 145.192L619.356 155.116L635.418 165.274L638.919 159.027Z" fill="#3B455A"/>
<path d="M650.329 193.92L685.244 180.906C685.244 180.906 714.24 212.65 728.346 259.042C742.452 305.434 711.105 370.503 711.105 370.503C711.105 370.503 613.745 351.826 597.773 348.881L629.283 256.096L650.329 193.92Z" fill="#7078FF"/>
<path d="M559.931 278.031L547.336 277.497L547.344 272.429L556.056 271L554.876 268.601L565.594 270.292L566.343 275.562L559.931 278.031Z" fill="#EED5B9"/>
<path d="M650.01 205.984L617.543 257.54L562.17 268.576L564.223 278.961L632.674 279.547L670.954 233.932L650.01 205.984Z" fill="#7078FF"/>
<path d="M140.917 484.303L140.662 486.294L139.813 492.903L153.032 501.107L160.913 495.295L154.729 487.889L154.146 487.526L153.814 488.284L140.917 484.303Z" fill="#2B2133"/>
<path d="M142.718 297.708C142.733 296.871 142.758 296.034 142.78 295.196L141.604 304.358L142.391 308.462C142.399 307.652 142.412 306.857 142.428 306.087C142.514 302.158 142.699 298.879 142.718 297.708Z" fill="#DB00FF"/>
<path d="M180.611 309.506C174.259 310.636 167.781 312.25 162.119 315.286C156.717 318.184 152.839 322.404 147.359 325.403C146.858 325.677 146.311 325.957 145.74 325.908L158.917 394.565L140.199 484.081L140.917 484.303L141.511 479.685L154.146 487.526L200.226 382.278L200.786 376.34L188.702 308.204C185.992 308.584 183.292 309.015 180.611 309.506Z" fill="#3B455A"/>
<path d="M140.917 484.303L153.814 488.284L154.146 487.526L141.511 479.685L140.917 484.303Z" fill="#EAEDEF"/>
<path d="M209.497 306.519C206.457 306.572 203.415 306.724 200.375 306.95L203.306 349.674L200.786 376.34L202.235 384.506L210.51 485.594H210.585V484.129H223.84L240.653 376.04L239.819 308.343C236.274 307.997 218.903 306.355 209.497 306.519Z" fill="#3B455A"/>
<path d="M200.376 306.95C196.472 307.239 192.575 307.66 188.702 308.204L200.786 376.34L203.306 349.674L200.376 306.95Z" fill="#3B455A"/>
<path d="M210.585 485.594V490.785L224.754 497.443L231.839 490.785L224.754 484.129H223.84L223.613 485.594H210.585Z" fill="#2B2133"/>
<path d="M210.585 485.594H223.613L223.84 484.129H210.585V485.594Z" fill="#2B2133"/>
<path d="M200.285 179.576C200.739 178.127 201.316 176.799 202.665 176.056C204.111 175.261 205.945 175.492 207.527 174.975C210.506 174.002 211.79 170.786 212.703 167.949C213.497 165.482 214.29 163.016 215.084 160.549C215.441 159.439 215.797 158.293 216.028 157.143C211.499 155.553 207.263 152.637 202.533 151.523C197.226 150.274 187.538 148.428 183.057 152.602C182.959 152.693 182.87 152.796 182.786 152.906C182.455 154.38 182.124 155.854 181.793 157.328C181.773 161.491 182.97 166.933 182.821 169.146C182.175 168.944 181.549 168.669 180.937 168.346C182.318 170.449 185.209 171.759 187.803 172.718C187.389 174.806 187.106 176.916 186.94 179.034L187.046 179.042C191.368 179.391 195.844 179.363 200.285 179.576Z" fill="#EDD4B9"/>
<path d="M180.481 163.168C180.918 161.221 181.355 159.275 181.793 157.328C181.801 155.46 182.054 153.851 182.786 152.906C182.983 152.028 183.179 151.15 183.377 150.273C183.71 148.787 184.063 147.257 184.979 146.005C186.587 143.808 189.574 142.926 192.385 142.567C199.56 141.651 207.271 143.371 212.626 147.949C214.051 149.168 215.326 150.618 215.908 152.344C216.432 153.899 216.354 155.526 216.028 157.143C217.041 157.499 218.068 157.791 219.12 157.979C223.258 158.719 228.645 156.985 232.264 155.086C236.728 152.742 239.046 145.535 241.757 141.68C242.499 140.624 243.294 139.608 244.176 138.66C246.088 136.606 248.411 134.868 249.974 132.569C251.537 130.269 252.179 127.101 250.5 124.875C249.415 123.439 247.594 122.677 245.817 122.118C239.962 120.276 233.578 119.943 227.541 121.167C221.792 122.332 216.606 124.411 210.951 122.201C205.638 120.124 201.717 120.76 196.012 122.453C189.84 124.285 181.641 124.484 176.013 127.176C173.662 128.301 171.751 130.119 170.237 132.148C164.992 139.18 164.575 149.11 169.215 156.508C170.256 158.167 171.519 159.695 172.853 161.158C175.157 163.688 177.838 166.706 180.937 168.346C180.539 167.74 180.26 167.073 180.158 166.325C180.013 165.271 180.248 164.208 180.481 163.168Z" fill="#3B455A"/>
<path d="M181.793 157.328C181.355 159.275 180.918 161.221 180.481 163.168C180.248 164.208 180.013 165.271 180.158 166.325C180.26 167.073 180.539 167.74 180.937 168.346C181.549 168.669 182.175 168.944 182.821 169.146C182.97 166.933 181.773 161.491 181.793 157.328Z" fill="#3B455A"/>
<path d="M215.908 152.344C215.326 150.618 214.051 149.168 212.626 147.949C207.271 143.371 199.56 141.651 192.385 142.567C189.574 142.926 186.587 143.808 184.979 146.005C184.063 147.257 183.71 148.786 183.377 150.273C183.179 151.15 182.983 152.028 182.786 152.906C182.87 152.796 182.959 152.693 183.057 152.602C187.537 148.428 197.226 150.274 202.533 151.523C207.263 152.637 211.499 155.553 216.028 157.143C216.354 155.526 216.432 153.899 215.908 152.344Z" fill="#3B455A"/>
<path d="M294.556 283.138C292.372 280.181 284.951 278.201 281.606 276.385C274.134 272.326 266.953 267.694 260.63 262.13C251.643 254.223 245.011 244.524 240.86 233.599C238.765 228.085 237.254 222.386 236.006 216.65C233.146 203.499 231.317 189.421 216.657 182.816C211.522 180.504 205.933 179.846 200.285 179.576C199.882 180.863 199.578 182.244 198.923 183.396C194.876 182.877 190.831 182.358 186.785 181.839C186.809 180.903 186.866 179.968 186.94 179.034C184.72 178.856 182.402 178.706 180.354 179.524C174.982 181.67 169.292 185.255 165.422 189.406C161.59 193.515 160.081 199.069 157.843 203.995C154.586 211.163 150.172 230.407 148.927 238.111C147.419 247.443 146.024 256.793 144.938 266.177C143.822 275.818 143.036 285.499 142.78 295.196L144.181 284.286L198.66 281.941L198.9 285.439L239.607 291.071L239.82 308.343C240.235 308.384 240.463 308.407 240.463 308.407C246.369 307.411 252.013 305.373 257.671 303.482C267.392 300.233 277.319 297.371 286.441 292.82C289.368 291.359 297.442 287.044 294.556 283.138Z" fill="#DB00FF"/>
<path d="M147.359 325.403C152.839 322.404 156.717 318.184 162.119 315.286C167.781 312.25 174.259 310.636 180.611 309.506C183.292 309.015 185.992 308.584 188.702 308.204L184.305 283.42L198.9 285.439L198.66 281.941L144.181 284.286L142.78 295.196C142.758 296.034 142.733 296.871 142.718 297.708C142.699 298.879 142.514 302.158 142.428 306.087C142.412 306.857 142.399 307.652 142.391 308.462L145.74 325.908C146.311 325.957 146.858 325.677 147.359 325.403Z" fill="#DB00FF"/>
<path d="M198.9 285.439L200.376 306.95C203.415 306.724 206.458 306.572 209.497 306.519C218.903 306.355 236.274 307.997 239.82 308.343L239.607 291.071L198.9 285.439Z" fill="#DB00FF"/>
<path d="M188.702 308.204C192.575 307.66 196.472 307.239 200.375 306.95L198.9 285.439L184.305 283.42L188.702 308.204Z" fill="#DB00FF"/>
<path d="M295.655 255.25L301.395 253.339L310.389 248.164L309.83 241.225L301.662 243.771L301.209 242.133L295.343 242.437L287.936 247.498L289.062 253.855L295.655 255.25Z" fill="#ECD3B8"/>
<path d="M171.752 245.304L257.027 264.048L296.828 254.983L297.773 242.277L257.793 244.914L182.968 219.095C182.968 219.095 174.453 234.574 171.752 245.304Z" fill="#DB00FF"/>
<path d="M298.632 288.274C295.217 311.453 302.056 334.526 317.891 353.249C320.184 355.959 322.666 358.573 325.267 361.018C332.178 367.512 340.091 372.99 348.784 377.298C356.845 381.294 365.494 384.244 374.524 386.079L368.072 401.458L366.259 405.781L370.64 403.627L405.48 386.495L407.783 385.364L405.883 383.697L377.126 358.472L373.346 355.158L374.043 359.972L376.079 374.022C360.101 370.567 345.72 363.145 334.353 352.465C332.098 350.345 329.946 348.078 327.959 345.729C314.326 329.611 308.437 309.785 311.375 289.9L311.629 288.186L309.804 287.948L300.726 286.763L299.953 286.656L299.329 287.113L298.706 287.569L298.632 288.274Z" fill="#EF3125"/>
<path d="M576.312 228.863C579.728 205.684 572.889 182.61 557.054 163.889C554.761 161.178 552.279 158.564 549.678 156.12C542.766 149.625 534.854 144.148 526.16 139.838C518.1 135.843 509.45 132.893 500.421 131.059L506.873 115.678L508.685 111.355L504.305 113.51L469.465 130.642L467.162 131.774L469.062 133.44L497.82 158.665L501.599 161.98L500.902 157.166L498.867 143.115C514.843 146.571 529.226 153.992 540.592 164.672C542.847 166.792 544.999 169.058 546.986 171.408C560.618 187.525 566.508 207.353 563.569 227.236L563.316 228.951L565.14 229.189L574.219 230.374L574.992 230.482L575.616 230.025L576.239 229.568L576.312 228.863Z" fill="#00A253"/>
<path d="M385.477 179.828V168.411H408.986V151.016H344.969V168.411H368.481V179.818C349.373 180.793 335.005 184.996 335.005 190.03C335.005 195.064 349.38 199.267 368.481 200.248V236.816H385.482V200.245C404.556 199.267 418.895 195.067 418.895 190.038C418.895 185.008 404.556 180.808 385.482 179.831M385.482 197.147V197.138C385.003 197.172 382.538 197.336 377.051 197.336C372.664 197.336 369.577 197.198 368.49 197.135V197.15C351.608 196.32 339.006 193.055 339.006 189.149C339.006 185.243 351.609 181.983 368.49 181.151V193.898C369.595 193.982 372.758 194.19 377.123 194.19C382.365 194.19 385.001 193.947 385.485 193.898V181.151C402.334 181.984 414.906 185.252 414.906 189.144C414.906 193.037 402.328 196.306 385.485 197.14" fill="#F9CC5D"/>
</svg>
