
<svg version="1.0" xmlns="http://www.w3.org/2000/svg"
 width="300.000000pt" height="300.000000pt" viewBox="0 0 300.000000 300.000000"
 preserveAspectRatio="xMidYMid meet">

<g transform="translate(0.000000,300.000000) scale(0.100000,-0.100000)"
fill="#E40046" stroke="none">
<path d="M1090 2021 c8 -5 116 -39 239 -75 124 -36 227 -68 229 -71 3 -3 -276
-5 -619 -6 -345 0 -613 -4 -599 -9 14 -4 294 -43 623 -86 328 -43 597 -81 597
-84 0 -3 -351 -4 -780 -2 -429 1 -780 -1 -780 -5 0 -5 361 -61 803 -127 441
-65 816 -122 832 -126 17 -5 -199 -9 -480 -10 -301 -1 -502 -5 -490 -10 17 -7
684 -133 990 -187 50 -8 97 -18 105 -22 8 -3 -136 -8 -320 -11 l-335 -5 435
-108 c239 -59 447 -107 461 -107 14 0 41 10 60 23 30 20 44 47 126 252 50 127
95 229 100 227 4 -2 47 -100 94 -219 104 -259 118 -278 208 -278 50 0 64 4 86
25 15 14 33 36 40 50 34 68 278 799 278 835 0 57 -26 101 -75 126 -56 29 -118
22 -159 -17 -30 -29 -41 -58 -134 -361 -21 -68 -41 -123 -45 -123 -3 0 -23 48
-44 108 -79 223 -137 359 -161 382 -35 33 -118 39 -162 11 -43 -27 -67 -77
-149 -313 -38 -109 -72 -198 -75 -198 -3 0 -33 89 -68 198 -34 108 -73 220
-87 248 -40 85 -38 84 -426 84 -192 0 -327 -4 -318 -9z"/>
</g>
</svg>
